<?xml version="1.0" standalone="no"?>
<!DOCTYPE svg PUBLIC "-//W3C//DTD SVG 1.1//EN" "http://www.w3.org/Graphics/SVG/1.1/DTD/svg11.dtd" >
<svg xmlns="http://www.w3.org/2000/svg" xmlns:xlink="http://www.w3.org/1999/xlink" version="1.1">
<metadata>
Created by FontForge 20201107 at Tue Dec 17 21:28:22 2024
 By 
copyright missing
</metadata>
<defs>
<font id="NoCommercialPotential-Regular" horiz-adv-x="1228" >
  <font-face 
    font-family="No Commercial Potential"
    font-weight="400"
    font-stretch="normal"
    units-per-em="2048"
    panose-1="0 0 0 0 0 0 0 0 0 0"
    ascent="1536"
    descent="-512"
    x-height="1075"
    cap-height="1475"
    bbox="-45 -543.074 2179 1960"
    underline-thickness="102"
    underline-position="-255"
    unicode-range="U+0020-2265"
  />
<missing-glyph horiz-adv-x="1024" 
d="M840 1536v-2048h-650v2048h650zM682 139h-340v-231h340v231zM614 72v-97h-204v97h204zM682 494h-205v-115h70v47h67v-96h-204v164h-68v-232h340v232zM682 743h-68v-135h-272v-69h340v204zM682 866h-340v-67h135v-76h-135v-68h205v144h135v67zM477 1065v-74h-67v74h67z
M547 1135h-205v-213h340v69h-135v144zM682 1399h-338v-68h133v-76h-135v-67h340v67h-135v76h135v68zM682 -139h-340v-68h143l-143 -96v-68h340v68h-209l143 96h66v68z" />
    <glyph glyph-name=".notdef" horiz-adv-x="1024" 
d="M840 1536v-2048h-650v2048h650zM682 139h-340v-231h340v231zM614 72v-97h-204v97h204zM682 494h-205v-115h70v47h67v-96h-204v164h-68v-232h340v232zM682 743h-68v-135h-272v-69h340v204zM682 866h-340v-67h135v-76h-135v-68h205v144h135v67zM477 1065v-74h-67v74h67z
M547 1135h-205v-213h340v69h-135v144zM682 1399h-338v-68h133v-76h-135v-67h340v67h-135v76h135v68zM682 -139h-340v-68h143l-143 -96v-68h340v68h-209l143 96h66v68z" />
    <glyph glyph-name=".null" horiz-adv-x="0" 
 />
    <glyph glyph-name="nonmarkingreturn" horiz-adv-x="682" 
 />
    <glyph glyph-name="space" unicode=" " horiz-adv-x="440" 
 />
    <glyph glyph-name="space" unicode="&#xa0;" horiz-adv-x="440" 
 />
    <glyph glyph-name="exclam" unicode="!" horiz-adv-x="458" 
d="M305 1567h-186v-1200h186v1200zM213 219q47 0 81 -34t34 -81t-34 -80.5t-81 -33.5t-81 33.5t-34 80.5t34 81t81 34z" />
    <glyph glyph-name="quotedbl" unicode="&#x22;" horiz-adv-x="716" 
d="M119 1475h166v-525h-166v525zM432 1475h166v-525h-166v525z" />
    <glyph glyph-name="numbersign" unicode="#" horiz-adv-x="1071" 
d="M330 1505h155l-34 -399h245l35 399h156l-35 -399h154v-158h-170l-27 -340h149v-157h-165l-41 -482h-156l41 482h-246l-41 -482h-155l41 482h-160v157h176l27 340h-156v158h172zM408 608h245l27 340h-246z" />
    <glyph glyph-name="dollar" unicode="$" 
 />
    <glyph glyph-name="percent" unicode="%" horiz-adv-x="1435" 
d="M1057 1505l149 -30l-817 -1506l-143 31zM1094 653q148 0 240.5 -97.5t92.5 -244.5t-92.5 -244.5t-240.5 -97.5q-149 0 -241.5 97.5t-92.5 244.5t92.5 244.5t241.5 97.5zM1094 506q-76 0 -131.5 -56.5t-55.5 -138.5t55.5 -138t131.5 -56q77 0 131.5 56t54.5 138
q0 83 -54.5 139t-131.5 56zM358 1507q149 0 241.5 -97.5t92.5 -244.5t-92.5 -244.5t-241.5 -97.5q-148 0 -240.5 97.5t-92.5 244.5t92.5 244.5t240.5 97.5zM358 1360q-76 0 -131 -56.5t-55 -138.5t55 -138t131 -56q77 0 132 56t55 138t-55 138.5t-132 56.5z" />
    <glyph glyph-name="ampersand" unicode="&#x26;" horiz-adv-x="1505" 
d="M623 143q89 0 161 24t121.5 83.5t50.5 148.5q1 77 -26.5 135.5t-76 91.5t-106 49.5t-124.5 18.5q-178 5 -284.5 -68t-105.5 -227q1 -90 53 -148.5t136.5 -83t200.5 -24.5zM1546 2q-66 16 -129.5 53.5t-121 93t-101.5 106.5t-94 118q-18 -215 -136.5 -308.5t-340.5 -93.5
q-270 0 -414.5 106.5t-147.5 342.5q-1 137 80 236.5t221 146.5q-93 56 -146 142.5t-50 180.5q2 93 40.5 167.5t100.5 119.5t137.5 68.5t157.5 23.5q85 0 159 -23.5t132.5 -70.5t92.5 -125.5t34 -179.5h-170q-3 130 -65 183.5t-183 53.5q-116 0 -194.5 -57t-79.5 -147
q-1 -48 14.5 -86.5t40.5 -64.5t65.5 -48.5t80 -36.5t94.5 -29q138 -38 230.5 -81t134 -76.5t89.5 -87.5q21 -24 74 -87t93 -108t94 -99.5t107 -92t101 -54.5v-186z" />
    <glyph glyph-name="quotesingle" unicode="'" horiz-adv-x="403" 
d="M119 1475h166v-525h-166v525z" />
    <glyph glyph-name="parenleft" unicode="(" horiz-adv-x="782" 
d="M551 -305q-198 169 -305 404t-107 476q0 324 96 537.5t302 362.5l100 -127q-328 -220 -328 -721q0 -256 79.5 -446t262.5 -355z" />
    <glyph glyph-name="parenright" unicode=")" horiz-adv-x="782" 
d="M131 -174q183 165 262.5 355t79.5 446q0 501 -328 721l101 127q206 -149 301.5 -362.5t95.5 -537.5q0 -241 -107 -476t-305 -404z" />
    <glyph glyph-name="asterisk" unicode="*" horiz-adv-x="940" 
d="M61 1217l99 124l246 -161l-9 305l144 20l-4 -311l243 147l99 -100l-295 -166l278 -149l-88 -123l-242 166l9 -307l-144 -25l11 319l-242 -143l-94 100l286 162z" />
    <glyph glyph-name="plus" unicode="+" 
 />
    <glyph glyph-name="comma" unicode="," horiz-adv-x="520" 
d="M98 -229q86 121 133 217q5 13 5.5 25t-2.5 22t-10 20t-14 17.5t-18 15.5t-18.5 13t-18.5 12t-16 10l123 164q197 -141 88 -361q-28 -56 -131 -217z" />
    <glyph glyph-name="hyphen" unicode="-" horiz-adv-x="679" 
d="M70 473v174h528v-174h-528z" />
    <glyph glyph-name="period" unicode="." horiz-adv-x="503" 
d="M252 -6q-51 0 -86 35t-35 86t35 86t86 35t86 -35t35 -86t-35 -86t-86 -35z" />
    <glyph glyph-name="slash" unicode="/" horiz-adv-x="544" 
d="M152 -31h-158l403 1536h158z" />
    <glyph glyph-name="zero" unicode="0" horiz-adv-x="1288" 
d="M641 -31q-138 0 -243.5 58.5t-170 162.5t-97 240.5t-32.5 300.5q0 162 35.5 301.5t104 245.5t175.5 166.5t242 60.5q102 0 189 -39.5t150 -110t107.5 -167t66.5 -212.5t22 -245q0 -131 -20 -244t-63 -209t-106.5 -164t-155 -106.5t-204.5 -38.5zM657 150q188 0 267.5 149
t79.5 438q0 105 -10.5 189.5t-36.5 161t-68 128t-107 81.5t-151 30q-114 0 -193.5 -79.5t-116 -210t-36.5 -300.5q0 -116 10.5 -204t36 -162.5t67.5 -121.5t106.5 -73t151.5 -26z" />
    <glyph glyph-name="one" unicode="1" horiz-adv-x="745" 
d="M100 1075q167 78 287 193v-1268h182v1475h-186q-69 -77 -143 -125t-215 -119z" />
    <glyph glyph-name="two" unicode="2" horiz-adv-x="1114" 
d="M86 1231q195 274 465 274q68 0 133.5 -13t129.5 -44t111.5 -77t77 -118.5t29.5 -162.5q0 -162 -91.5 -275t-278.5 -192q-102 -44 -168 -77.5t-123.5 -73.5t-88.5 -82.5t-48 -96t-17 -121.5h832v-172h-1024v27q0 96 2.5 145.5t19 121t51.5 132.5q21 37 48.5 71.5t54.5 61
t63.5 53t64.5 44t68 38.5t64.5 32.5t64 29.5t56.5 26q276 124 276 301q0 56 -19.5 100.5t-50 70.5t-71 42.5t-77.5 22.5t-75 6q-207 0 -354 -205z" />
    <glyph glyph-name="three" unicode="3" horiz-adv-x="1220" 
d="M586 -31q-107 0 -203 31.5t-168.5 88.5t-115 143.5t-42.5 189.5h168q0 -130 103.5 -207.5t257.5 -77.5q102 0 192 33.5t149.5 100t59.5 151.5q0 143 -112.5 217t-303.5 74h-104v157h104q33 0 73.5 8t86 26.5t82.5 45t61.5 69t24.5 93.5q0 103 -88.5 164t-224.5 61
q-55 0 -105.5 -12.5t-96 -38t-74 -72t-31.5 -108.5h-173q2 82 30 149t73.5 113t107 77.5t129 45.5t140.5 14q58 0 118.5 -11t127 -39.5t117.5 -71t84.5 -113t33.5 -158.5q0 -102 -62.5 -180t-162.5 -127q144 -57 228.5 -157.5t84.5 -225.5q0 -136 -83.5 -241.5t-212 -158.5
t-273.5 -53zM279 1106h-173h173z" />
    <glyph glyph-name="four" unicode="4" horiz-adv-x="1191" 
d="M948 0h-186v348h-746v154l746 973h186v-969h211v-158h-211v-348zM225 506h537v702z" />
    <glyph glyph-name="five" unicode="5" horiz-adv-x="1247" 
d="M643 -31q-87 0 -164.5 15.5t-144.5 48.5t-115.5 80.5t-76 116t-27.5 151.5h168q0 -86 50 -142t127.5 -79t182.5 -23q149 0 252.5 92.5t103.5 249.5q0 56 -22 113.5t-63.5 108.5t-112.5 83.5t-158 32.5q-99 0 -190.5 -40.5t-147.5 -112.5h-155l24 811h891v-162h-729
l-19 -441q148 113 326 113q121 0 223.5 -46.5t166.5 -120.5t99.5 -162t36.5 -177q2 -95 -33 -185.5t-99.5 -163t-167 -117t-226.5 -44.5z" />
    <glyph glyph-name="six" unicode="6" horiz-adv-x="1300" 
d="M662 -31q-120 0 -216 37t-160 101.5t-107 156t-62 196t-19 226.5q0 183 30 325.5t81 234t124 151t153.5 84t175.5 24.5q30 0 58.5 -2.5t51 -5t49 -11.5t41.5 -13t42 -18t37 -19t39 -24t36.5 -24t41 -28.5t40.5 -28.5q10 -7 60 -43t65 -45l-105 -137l-50 37.5t-60 42.5
q-70 47 -94 63t-74.5 43t-90.5 36t-87 9q-179 0 -286.5 -153t-117.5 -447q41 61 68.5 97t64.5 73t73.5 55.5t86 30t111.5 11.5q134 0 255 -64.5t197 -182t76 -259.5q0 -112 -45 -211.5t-118.5 -168.5t-169 -109t-195.5 -40zM662 137q141 0 246.5 106t105.5 255
q0 133 -106 234.5t-246 101.5q-165 0 -269 -99t-104 -237q0 -154 103 -257.5t270 -103.5z" />
    <glyph glyph-name="seven" unicode="7" horiz-adv-x="1093" 
d="M217 0l674 1307h-875v168h1065v-181l-663 -1294h-201z" />
    <glyph glyph-name="eight" unicode="8" horiz-adv-x="1290" 
d="M645 -31q-125 0 -229 28t-183 83.5t-123 146.5t-44 209q0 94 66.5 190t193.5 183q-181 139 -181 283q0 104 44 185t117.5 128.5t159.5 71.5t179 24q72 0 141 -14.5t134 -46.5t113.5 -78.5t78 -116t29.5 -153.5q0 -142 -183 -283q130 -87 198.5 -183.5t68.5 -189.5
q0 -118 -44.5 -209t-124.5 -146.5t-183.5 -83.5t-227.5 -28zM645 137q89 0 160.5 16.5t127 51t86 92t30.5 135.5q0 76 -36.5 136t-97 95t-129.5 52.5t-141 17.5q-73 0 -142.5 -17.5t-129.5 -52.5t-96.5 -95t-36.5 -136q0 -151 111 -223t294 -72zM645 870q130 0 226 61.5
t96 162.5q0 64 -29.5 113t-78 75.5t-102.5 39.5t-112 13q-56 0 -110.5 -13t-105 -39.5t-81.5 -75.5t-31 -113q0 -104 92 -164t236 -60z" />
    <glyph glyph-name="nine" unicode="9" horiz-adv-x="1300" 
d="M639 1505q120 0 215.5 -37t160 -101.5t107 -156t61.5 -196t19 -226.5q0 -183 -30 -325.5t-80.5 -234t-123.5 -151t-153.5 -84t-175.5 -24.5q-30 0 -58.5 2.5t-51 5t-49 11.5t-41.5 13t-42 18t-37 19t-39 24t-36.5 24t-41 28.5t-40.5 28.5q-10 7 -60 43t-65 45l104 138
q3 -2 50 -37t61 -43q129 -88 177 -111q83 -41 169 -41q179 0 286 153t117 447q-51 -76 -85 -118t-81.5 -80t-103.5 -53t-133 -15q-134 0 -255 64.5t-197 182t-76 259.5q0 148 76 271t197 190t255 67zM639 1337q-141 0 -246.5 -105.5t-105.5 -254.5q0 -134 105.5 -235
t244.5 -101q165 0 270 99t105 237q0 154 -103 257t-270 103z" />
    <glyph glyph-name="colon" unicode=":" horiz-adv-x="503" 
d="M252 -6q-51 0 -86 35t-35 86t35 86t86 35t86 -35t35 -86t-35 -86t-86 -35zM252 612q-51 0 -86 35t-35 86t35 86t86 35t86 -35t35 -86t-35 -86t-86 -35z" />
    <glyph glyph-name="semicolon" unicode=";" horiz-adv-x="520" 
d="M242 612q-51 0 -86 35t-35 86t35 86t86 35t85.5 -35t34.5 -86t-34.5 -86t-85.5 -35zM98 -229q86 121 133 217q5 13 5.5 25t-2.5 22t-10 20t-14 17.5t-18 15.5t-18.5 13t-18.5 12t-16 10l123 164q197 -141 88 -361q-28 -56 -131 -217z" />
    <glyph glyph-name="less" unicode="&#x3c;" horiz-adv-x="1130" 
d="M981 -31l-924 527v153l924 457l72 -168l-783 -375l783 -426z" />
    <glyph glyph-name="equal" unicode="=" 
 />
    <glyph glyph-name="greater" unicode="&#x3e;" horiz-adv-x="1130" 
d="M150 -31l-72 168l782 426l-782 375l72 168l923 -457v-153z" />
    <glyph glyph-name="question" unicode="?" horiz-adv-x="964" 
d="M436 219q47 0 81 -34t34 -81t-34 -80.5t-81 -33.5t-80.5 33.5t-33.5 80.5t33.5 81t80.5 34zM725 1151q0 114 -78 174.5t-209 60.5q-45 0 -85 -15.5t-76 -48.5t-57.5 -58t-55.5 -70l-111 137q37 43 59.5 67.5t64.5 60.5t79.5 55t91.5 34t113 15q63 0 125 -14.5t121 -46.5
t103.5 -78t71.5 -114.5t27 -150.5q0 -68 -17.5 -128t-39 -99t-61.5 -81t-63.5 -61t-66.5 -51q-5 -4 -8 -6q-80 -60 -102.5 -128.5t-22.5 -233.5h-186q0 93 4 149.5t15.5 112.5t36.5 96t63.5 80.5t99.5 85.5q43 31 63 48t48.5 49t40.5 70.5t12 88.5z" />
    <glyph glyph-name="at" unicode="@" horiz-adv-x="1570" 
d="M782 532q74 0 125 61.5t51 164.5q0 94 -41 156t-131 65q-97 3 -145.5 -56t-48.5 -165q0 -121 46.5 -173.5t143.5 -52.5zM1282 98q-183 -129 -446 -129q-228 0 -396 95.5t-255.5 268t-86.5 400.5q0 168 49.5 310.5t141 244.5t226 159.5t298.5 57.5q158 0 286 -59
t210.5 -161t127 -235.5t44.5 -285.5q0 -213 -80.5 -329t-210.5 -116q-88 0 -137 47.5t-66 149.5q-57 -148 -258 -145q-50 1 -98.5 24.5t-91.5 69.5t-70 126t-27 183q0 175 91 268t231 93q85 0 125 -26t92 -101l4 98l129 -2l-22 -410q-6 -104 23 -162.5t95 -58.5q97 0 97 272
q0 101 -17 188t-55.5 163.5t-96.5 130.5t-146 85t-199 31q-160 0 -278.5 -79t-179 -215.5t-61.5 -313.5q-2 -279 146 -438.5t416 -159.5q200 0 342 96z" />
    <glyph glyph-name="A" unicode="A" horiz-adv-x="1085" 
d="M12 0l437 1475h188l436 -1475h-192l-103 348h-475l-104 -348h-187zM352 506h379l-94 315l-94 471l-97 -471z" />
    <glyph glyph-name="B" unicode="B" horiz-adv-x="1161" 
d="M147 0v1475h496q183 0 279 -101t96 -303q0 -59 -13.5 -105.5t-40.5 -81t-54 -57t-66 -47.5q58 -37 95 -66.5t73 -72.5t53.5 -98t17.5 -125q0 -187 -126 -302.5t-314 -115.5h-496zM334 182h260q150 0 227.5 65t77.5 181q0 74 -18.5 121.5t-59 73.5t-93.5 35.5t-134 9.5
h-260v-486zM334 836h260q121 0 182.5 70t61.5 196q0 207 -244 207h-260v-473z" />
    <glyph glyph-name="C" unicode="C" horiz-adv-x="1460" 
d="M1403 510q-27 -123 -76 -219t-124.5 -169.5t-185 -113t-247.5 -39.5q-167 0 -299.5 58.5t-217.5 162t-130 241.5t-45 300q0 161 49 301.5t138.5 246t224 166t296.5 60.5q123 0 225.5 -39.5t177 -112t126.5 -169t82 -215.5h-191q-24 85 -56.5 146.5t-84.5 111.5t-129 75
t-180 25q-147 0 -259 -78.5t-170.5 -212t-58.5 -299.5q0 -288 123.5 -437.5t396.5 -149.5q185 0 281.5 89.5t140.5 270.5h193z" />
    <glyph glyph-name="D" unicode="D" horiz-adv-x="1398" 
d="M147 0v1475h428q178 0 321 -56.5t235 -156t141 -232.5t49 -289q0 -128 -25 -236.5t-81 -203t-141.5 -160.5t-212 -103.5t-286.5 -37.5h-428zM334 1307l2 -1133h192q310 0 461.5 140.5t151.5 433.5q0 270 -159 414.5t-454 144.5h-194z" />
    <glyph glyph-name="E" unicode="E" horiz-adv-x="1052" 
d="M147 0v1475h807v-189h-620v-424h590v-184h-590v-485h620v-193h-807z" />
    <glyph glyph-name="F" unicode="F" horiz-adv-x="956" 
d="M334 0h-187v1475h736v-166h-549v-467h487v-164h-487v-678z" />
    <glyph glyph-name="G" unicode="G" horiz-adv-x="1603" 
d="M770 -31q-167 0 -299.5 58.5t-217.5 162t-130 241.5t-45 300q0 161 49 301.5t138.5 246t224 166t296.5 60.5q123 0 225.5 -39.5t177 -112t126.5 -169t82 -215.5h-191q-24 85 -56.5 146.5t-84.5 111.5t-129 75t-180 25q-147 0 -259 -78.5t-170.5 -212t-58.5 -299.5
q0 -288 123.5 -437.5t396.5 -149.5q119 0 216 59.5t152 152.5t65 201h-433v166h611v-123q0 -35 4.5 -71.5t10.5 -67.5t18 -69t20.5 -63.5t26.5 -63t26.5 -56.5t29 -56t27 -48.5t27.5 -46.5t23 -39l-172 -56q-4 7 -23.5 42.5t-26.5 48.5t-24 44.5t-25 50t-20 46t-19.5 50.5
t-13.5 46q-78 -156 -211 -242t-307 -86z" />
    <glyph glyph-name="H" unicode="H" horiz-adv-x="1208" 
d="M334 1475v-633h538v633h187l2 -1475h-189v657h-536v-657h-189v1475h187z" />
    <glyph glyph-name="I" unicode="I" horiz-adv-x="483" 
d="M336 1475v-1475h-189v1475h189z" />
    <glyph glyph-name="J" unicode="J" horiz-adv-x="958" 
d="M418 -31q-95 0 -167 25.5t-127 81.5t-83.5 153t-28.5 234h185q0 -162 54.5 -236.5t168.5 -76.5q58 1 96 13t67 44t41.5 89.5t12.5 145.5v1033h186v-1045q0 -244 -105.5 -352.5t-299.5 -108.5z" />
    <glyph glyph-name="K" unicode="K" horiz-adv-x="1165" 
d="M334 592v-592h-187v1475h187v-662l528 662h232l-535 -664l594 -811h-238l-505 686z" />
    <glyph glyph-name="L" unicode="L" horiz-adv-x="968" 
d="M336 1475v-1282h620v-193h-809v1475h189z" />
    <glyph glyph-name="M" unicode="M" horiz-adv-x="1587" 
d="M147 0v1475h181l293 -691l174 -557l174 557l293 691h178v-1475h-187v467l23 678l-410 -1145h-145l-408 1135l21 -668v-467h-187z" />
    <glyph glyph-name="N" unicode="N" 
d="M893 338q-13 30 -44.5 107.5t-50.5 122.5t-42 98t-37 79l-385 730h-187v-1475h187v1157q130 -326 160 -383l401 -774h186l-2 1475h-186v-1137z" />
    <glyph glyph-name="O" unicode="O" horiz-adv-x="1544" 
d="M770 -31q-167 0 -299.5 58.5t-217.5 162t-130 241.5t-45 300q0 161 49 301.5t138.5 246t224 166t296.5 60.5q153 0 282 -61t215.5 -165.5t134.5 -246t48 -301.5q0 -162 -44.5 -300t-130 -241.5t-219 -162t-302.5 -58.5zM788 150q245 0 366.5 153t121.5 434
q0 128 -29.5 233t-90 186t-162.5 126t-238 45q-147 0 -259 -78.5t-170.5 -212t-58.5 -299.5q0 -288 123.5 -437.5t396.5 -149.5z" />
    <glyph glyph-name="P" unicode="P" horiz-adv-x="1150" 
d="M147 0v1475h478q211 0 329.5 -115t118.5 -307q0 -100 -35.5 -179.5t-98 -130t-142 -79t-172.5 -33.5l-291 -19v-612h-187zM328 782l297 17q70 4 123.5 25t83 49t48 64.5t24 66t5.5 59.5q0 57 -17.5 101.5t-45 71t-66 44t-76 23.5t-79.5 6h-297v-527z" />
    <glyph glyph-name="Q" unicode="Q" horiz-adv-x="1540" 
d="M770 -31q-167 0 -299.5 58.5t-217.5 162t-130 241.5t-45 300q0 161 49 301.5t138.5 246t224 166t296.5 60.5q153 0 282 -61t215.5 -165.5t134.5 -246t48 -301.5q0 -352 -190 -557q154 -137 272 -176l-78 -150q-155 57 -327 215q-159 -94 -373 -94zM788 145q130 0 232 48
q-80 89 -168 213l133 92q99 -128 168 -201q127 151 127 440q0 128 -30 233t-91.5 186t-164 126t-238.5 45q-147 0 -259 -78.5t-170.5 -212t-58.5 -299.5q0 -289 124 -440.5t396 -151.5z" />
    <glyph glyph-name="R" unicode="R" horiz-adv-x="1251" 
d="M147 0v1475h478q213 0 330.5 -106t117.5 -296q0 -178 -105.5 -284.5t-271.5 -131.5l478 -657h-232l-467 645h-141v-645h-187zM328 813h297q70 0 122.5 20.5t80.5 49.5t45 68.5t21.5 69.5t4.5 62q0 71 -23.5 118.5t-66.5 69.5t-85.5 30t-98.5 8h-297v-496z" />
    <glyph glyph-name="S" unicode="S" horiz-adv-x="1189" 
d="M944 1182q-135 147 -309 147q-136 0 -211 -54t-76 -157q0 -38 12 -70t29 -54t46.5 -41.5t51.5 -30.5t57.5 -21.5t50.5 -14t44 -9.5q112 -23 193.5 -57t146 -87t97 -131t32.5 -182q0 -217 -126 -334t-331 -117q-65 0 -125.5 11t-103 24.5t-98 43t-84 48t-88 59.5t-86.5 58
l116 158q24 -16 75 -49.5t78.5 -51t73.5 -43t80.5 -38.5t79 -23t86.5 -10q104 0 183 67t80 176q1 56 -20.5 100.5t-45.5 70t-78.5 51t-79.5 33.5t-88 25q-16 5 -24 7q-143 40 -204 70q-190 93 -210 298q-2 25 -2 52q0 100 38.5 178.5t103 125.5t142 71t162.5 24
q137 0 241.5 -40t195.5 -144z" />
    <glyph glyph-name="T" unicode="T" horiz-adv-x="950" 
d="M381 0v1294h-365v181h918v-181h-365v-1294h-188z" />
    <glyph glyph-name="U" unicode="U" horiz-adv-x="1232" 
d="M616 150q-68 0 -118 15.5t-81.5 43.5t-50 73.5t-25.5 98t-7 123.5l2 971h-186l-3 -1074q0 -65 16 -126t52 -117t89.5 -97.5t133.5 -66.5t178 -25t178 25t133.5 66.5t89.5 97.5t52 117t16 126l-2 1074h-186l2 -971q0 -90 -12 -151.5t-42.5 -109t-87 -70.5t-141.5 -23z" />
    <glyph glyph-name="V" unicode="V" horiz-adv-x="1085" 
d="M12 1475h187l207 -689l137 -577l137 577l201 689h192l-436 -1475h-188z" />
    <glyph glyph-name="W" unicode="W" horiz-adv-x="1675" 
d="M928 1475h-185l-133 -689l-96 -553l-108 553l-185 689h-209l410 -1475h188l166 784l60 420l57 -420l168 -784h188l414 1475h-207l-180 -689l-119 -557l-96 557z" />
    <glyph glyph-name="X" unicode="X" horiz-adv-x="1163" 
d="M33 0l442 737l-442 738h227l139 -254l185 -334l188 334l139 254h219l-440 -738l440 -737h-233l-246 475q-11 20 -61 137q-36 -84 -68 -137l-270 -475h-219z" />
    <glyph glyph-name="Y" unicode="Y" horiz-adv-x="1048" 
d="M440 616l-424 859h213l179 -394l122 -325l121 319l180 400h201l-405 -859v-616h-187v616z" />
    <glyph glyph-name="Z" unicode="Z" horiz-adv-x="1257" 
d="M86 0l668 1153l92 147h-678v175h983l-659 -1139l-97 -156h776v-180h-1085z" />
    <glyph glyph-name="bracketleft" unicode="[" horiz-adv-x="765" 
d="M651 -139v-166h-512v1749h498v-166h-328v-1417h342z" />
    <glyph glyph-name="backslash" unicode="\" horiz-adv-x="544" 
d="M152 1505l403 -1536h-158l-403 1536h158z" />
    <glyph glyph-name="bracketright" unicode="]" horiz-adv-x="765" 
d="M115 -139h342v1417h-328v166h498v-1749h-512v166z" />
    <glyph glyph-name="asciicircum" unicode="^" 
 />
    <glyph glyph-name="underscore" unicode="_" horiz-adv-x="1024" 
d="M1024 -141v-125h-1024v125h1024z" />
    <glyph glyph-name="a" unicode="a" horiz-adv-x="997" 
d="M365 -31q-135 0 -221.5 97.5t-86.5 228.5q0 78 29 140t73 101.5t110.5 69t127.5 45t138 27.5q96 14 136 41.5t40 85.5q0 66 -47 100.5t-136 34.5q-43 0 -101.5 -15.5t-93 -28.5t-97.5 -40l-60 156q10 4 49 19.5t57 22t55 19t63 18t61 10.5t67 5q184 0 275.5 -99
t93.5 -288l2 -719h-180v170q-119 -201 -354 -201zM416 133q62 0 119 29.5t95 75t61.5 97.5t25.5 99q3 111 0 164q-37 -18 -94.5 -34.5t-108 -27t-104.5 -30t-92.5 -43.5t-63.5 -66t-25 -98q0 -71 58.5 -118.5t128.5 -47.5z" />
    <glyph glyph-name="b" unicode="b" horiz-adv-x="1282" 
d="M715 150q60 0 112.5 22.5t96 67.5t69 122.5t25.5 178.5q0 174 -87.5 281.5t-246.5 107.5q-157 0 -255.5 -109.5t-98.5 -279.5q0 -167 104.5 -279t280.5 -112zM147 0v1536h181v-657q84 105 170.5 164t193.5 59q153 0 270.5 -76t179.5 -204.5t62 -286.5t-58 -284t-173 -201
t-268 -75q-264 0 -371 191v-166h-187z" />
    <glyph glyph-name="c" unicode="c" horiz-adv-x="1124" 
d="M883 735q-33 96 -104 151.5t-183 55.5q-96 0 -172.5 -55t-118 -145.5t-41.5 -196.5q0 -185 82.5 -291.5t249.5 -106.5q244 0 295 172l176 -49q-41 -138 -162 -219.5t-309 -81.5q-122 0 -221.5 45t-163.5 123t-98.5 181t-34.5 221q0 155 68 285.5t187 206t263 75.5
q179 0 297.5 -84t165.5 -234z" />
    <glyph glyph-name="d" unicode="d" horiz-adv-x="1277" 
d="M578 -31q-115 0 -210.5 45t-158 122.5t-97 181t-34.5 221.5q0 155 67.5 285.5t185.5 206t259 75.5q62 0 115.5 -17t98.5 -50.5t79.5 -70t74.5 -89.5l3 657h178v-1536h-187v188q-110 -219 -374 -219zM592 154q179 0 269.5 105.5t90.5 285.5t-98 284.5t-287 104.5
q-116 0 -209.5 -111t-93.5 -278q0 -184 81.5 -287.5t246.5 -103.5z" />
    <glyph glyph-name="e" unicode="e" horiz-adv-x="1161" 
d="M1055 86q-12 -4 -103.5 -34t-134 -42t-113 -26.5t-118.5 -14.5q-246 0 -377 147.5t-131 422.5q0 155 67.5 285.5t184.5 206t256 75.5q235 0 372.5 -158t137.5 -467h-838q7 -95 36.5 -163.5t76.5 -105t99.5 -53t115.5 -16.5q36 0 97.5 14.5t104.5 28t127.5 43t102.5 35.5z
M264 633l635 10q-36 293 -313 293q-118 0 -207.5 -86t-114.5 -217z" />
    <glyph glyph-name="f" unicode="f" horiz-adv-x="651" 
d="M616 1380q-90 27 -124 27q-59 0 -87 -41t-28 -125v-166h239v-166h-233l2 -909h-186v909h-150v166h150v172q0 155 83.5 237.5t209.5 82.5q30 0 151 -27z" />
    <glyph glyph-name="g" unicode="g" horiz-adv-x="1249" 
d="M621 535q51 0 98.5 9t92.5 29.5t72 59t27 90.5q0 56 -27.5 98.5t-72 65.5t-92.5 34t-98 11q-152 0 -228 -47.5t-76 -161.5q0 -52 28 -90.5t74.5 -59t96.5 -29.5t105 -9zM57 -358l31 184q26 -11 102 -46t104 -47t88.5 -36t96 -33t83.5 -17.5t91 -8.5q158 0 234 46.5
t76 149.5q0 43 -23.5 72t-62.5 41.5t-72 17t-70 4.5h-143q-461 0 -461 285q0 66 29.5 125t81.5 96q-103 100 -103 250q0 170 126.5 272.5t334.5 102.5q204 0 340 -92q111 57 248 69l29 -159q-33 0 -81.5 -12.5t-80.5 -28.5q35 -68 35 -152q0 -119 -65 -202.5t-174 -123
t-251 -39.5q-133 0 -221 35q-36 -23 -59 -61.5t-23 -71.5q0 -59 67 -85.5t226 -26.5h147q65 0 121.5 -9t111 -32.5t92.5 -60t61.5 -96t23.5 -136.5q0 -75 -27 -136t-73 -102t-109.5 -69t-134.5 -40.5t-150 -11.5q-31 0 -68 5.5t-66 11t-76 20.5l-70.5 22.5t-80.5 29.5
t-74.5 29t-83 34.5t-77.5 32.5z" />
    <glyph glyph-name="h" unicode="h" horiz-adv-x="1110" 
d="M156 -2v1538h180v-649q41 57 65 87t54 60t56.5 43t61.5 21t80 8q139 0 228.5 -106t89.5 -265l-2 -735h-189l2 633q0 169 -42 238t-146 69q-98 0 -175 -91.5t-77 -209.5v-639z" />
    <glyph glyph-name="i" unicode="i" horiz-adv-x="516" 
d="M360 0h-186v1075h186v-1075zM258 1262q-50 0 -84.5 34.5t-34.5 83.5q0 50 34.5 84.5t84.5 34.5t84.5 -34.5t34.5 -84.5q0 -49 -34.5 -83.5t-84.5 -34.5z" />
    <glyph glyph-name="j" unicode="j" horiz-adv-x="546" 
d="M289 1241q-49 0 -84 34.5t-35 84.5t35 84.5t84 34.5t84 -34.5t35 -84.5t-35 -84.5t-84 -34.5zM195 -199v1274h186v-1298q0 -155 -83.5 -237.5t-209.5 -82.5q-71 0 -133 23v178q64 -23 125 -23q59 0 87 41t28 125z" />
    <glyph glyph-name="k" unicode="k" horiz-adv-x="1017" 
d="M156 0v1536h180v-979q35 51 131 174l283 344h221l-346 -430l385 -645h-219l-299 504l-150 -170v-334h-186z" />
    <glyph glyph-name="l" unicode="l" horiz-adv-x="481" 
d="M342 0h-186v1536h186v-1536z" />
    <glyph glyph-name="m" unicode="m" horiz-adv-x="1671" 
d="M147 0v1075h187v-176q37 60 62.5 94t60 62.5t74.5 39.5t96 11q105 0 177 -75t83 -175q35 60 56 92.5t51 68t60 51.5t72 27t97 11q138 0 223.5 -97t85.5 -274l-2 -735h-187l3 633q0 169 -40.5 238t-140.5 69q-95 0 -163 -89t-68 -208l-2 -643h-180l2 633
q0 168 -41.5 237.5t-141.5 69.5q-95 0 -166 -91t-71 -210v-639h-187z" />
    <glyph glyph-name="n" unicode="n" horiz-adv-x="1101" 
d="M147 0v1075h187v-182q39 50 56.5 72.5t45.5 53t45.5 42t44 25t54.5 17t65 3.5q139 0 228.5 -106t89.5 -265l-2 -735h-187l2 633q0 169 -43 238t-147 69q-98 0 -175 -91.5t-77 -209.5v-639h-187z" />
    <glyph glyph-name="o" unicode="o" horiz-adv-x="1220" 
d="M608 -31q-126 0 -228 45t-167.5 123t-100 181t-34.5 221q0 156 69 285.5t194 205.5t280 76q147 0 267 -75.5t187.5 -205.5t67.5 -286q0 -159 -59.5 -286.5t-183 -205.5t-292.5 -78zM623 147q169 0 251 107.5t82 290.5q0 82 -21.5 152.5t-64 125.5t-112.5 87t-160 32
q-146 0 -240 -116.5t-94 -280.5q0 -187 87 -292.5t272 -105.5z" />
    <glyph glyph-name="p" unicode="p" horiz-adv-x="1290" 
d="M723 150q60 0 112.5 22.5t96 67.5t69 122.5t25.5 178.5q0 180 -87 284.5t-247 104.5q-162 0 -258 -100.5t-96 -288.5q0 -167 104.5 -279t280.5 -112zM336 -512h-180v1587h182v-194q76 105 163 163t199 58q153 0 270.5 -76t179.5 -204.5t62 -286.5t-58 -284t-173 -201
t-268 -75q-273 0 -377 203v-690z" />
    <glyph glyph-name="q" unicode="q" horiz-adv-x="1273" 
d="M567 150q176 0 280.5 112t104.5 279q0 175 -98 282t-256 107q-161 0 -247.5 -105t-86.5 -284q0 -101 25.5 -178.5t69 -122.5t96 -67.5t112.5 -22.5zM954 -512v711q-114 -230 -376 -230q-153 0 -268 76.5t-173.5 204t-58.5 285.5q0 159 60.5 287.5t178.5 206t273 77.5
q109 0 195.5 -56t166.5 -159v184h183v-1587h-181z" />
    <glyph glyph-name="r" unicode="r" horiz-adv-x="753" 
d="M721 881q-14 4 -48 17t-58.5 19t-49.5 5q-63 -2 -117.5 -62t-85 -152.5t-30.5 -191.5v-516h-185v1075h187v-213q114 244 229 244q34 0 63 -7.5t66 -23t53 -20.5z" />
    <glyph glyph-name="s" unicode="s" horiz-adv-x="972" 
d="M584 -27q-67 -2 -141 14t-121.5 34t-129 53.5t-114.5 48.5l28 188q25 -12 90.5 -43t101.5 -47t88.5 -37t94.5 -29.5t78 -7.5q78 1 128 44t50 108q0 25 -7.5 46t-17.5 36t-30 28t-36.5 20.5t-45 15.5t-46.5 11.5t-51 10t-50 10.5q-61 13 -105.5 27t-93 39.5t-78.5 58.5
t-50 84.5t-20 116.5q0 146 100 223t279 80q63 1 118 -10.5t104 -39t69.5 -41.5t61.5 -46l-58 -154q-5 4 -32.5 25t-40 30t-41 26t-50.5 25t-53.5 14.5t-62.5 6.5q-108 -2 -169 -35.5t-61 -95.5q0 -23 6 -41t21 -32t28 -23.5t38.5 -18t40.5 -13t47 -12.5t45 -12
q20 -5 59.5 -15.5t60 -16t55.5 -16.5t54 -20t47 -24t43.5 -30.5t34 -37.5t27.5 -47t15.5 -57.5t6.5 -70.5q3 -150 -90.5 -249t-224.5 -102z" />
    <glyph glyph-name="t" unicode="t" horiz-adv-x="731" 
d="M670 -14q-50 -17 -111 -17q-346 0 -346 389v553h-147v164h147v254l180 31v-285h238v-164h-232v-512q0 -135 39 -190t121 -55q71 0 111 12v-180z" />
    <glyph glyph-name="u" unicode="u" horiz-adv-x="1093" 
d="M782 156l-2 -156h174v1075h-186v-639q0 -116 -73 -208.5t-158 -92.5q-119 0 -165 68.5t-46 238.5l2 633h-187l-2 -735q0 -161 92.5 -266t245.5 -105q83 0 164.5 49t140.5 138z" />
    <glyph glyph-name="v" unicode="v" horiz-adv-x="888" 
d="M346 0l-321 1075h196l125 -438q13 -60 98 -467l109 467l125 438h186l-321 -1075h-197z" />
    <glyph glyph-name="w" unicode="w" horiz-adv-x="1505" 
d="M829 1075h-149l-125 -438q-5 -23 -26.5 -103.5t-51 -187.5t-43.5 -162l-94 453l-119 438h-196l309 -1075h196l105 354l121 484l121 -484l102 -354h197l305 1075h-195l-110 -438q-23 -121 -101 -455q-14 54 -43.5 162.5t-51 189t-26.5 103.5z" />
    <glyph glyph-name="x" unicode="x" horiz-adv-x="964" 
d="M37 -2l348 555l-348 522h227l125 -215q25 -41 94 -186q66 122 105 186l123 215h217l-348 -520l348 -557l-217 2l-158 268q-24 42 -72 156q-45 -100 -78 -156l-157 -268z" />
    <glyph glyph-name="y" unicode="y" horiz-adv-x="954" 
d="M489 -324l441 1399h-185l-137 -442q-29 -93 -70.5 -254.5t-48.5 -185.5q-12 50 -36.5 160.5t-42 186t-23.5 97.5l-133 438h-205l350 -1106l-73 -225q-51 -160 -168 -113q-52 19 -109 70l-84 -141q84 -61 133 -78q89 -29 164 -23t135 61t92 156z" />
    <glyph glyph-name="z" unicode="z" horiz-adv-x="1058" 
d="M74 0l477 754l108 155h-524v166h830l-465 -739l-113 -162h598v-174h-911z" />
    <glyph glyph-name="braceleft" unicode="{" 
 />
    <glyph glyph-name="bar" unicode="|" 
 />
    <glyph glyph-name="braceright" unicode="}" 
 />
    <glyph glyph-name="asciitilde" unicode="~" 
 />
    <glyph glyph-name="exclamdown" unicode="&#xa1;" horiz-adv-x="532" 
d="M358 -461v1200h-186v-1200h186zM266 887q-47 0 -80.5 33.5t-33.5 80.5t33.5 81t80.5 34t81 -34t34 -81t-34 -80.5t-81 -33.5z" />
    <glyph glyph-name="sterling" unicode="&#xa3;" 
 />
    <glyph glyph-name="yen" unicode="&#xa5;" 
 />
    <glyph glyph-name="guillemotleft" unicode="&#xab;" 
 />
    <glyph glyph-name="degree" unicode="&#xb0;" 
 />
    <glyph glyph-name="plusminus" unicode="&#xb1;" 
 />
    <glyph glyph-name="paragraph" unicode="&#xb6;" 
 />
    <glyph glyph-name="guillemotright" unicode="&#xbb;" 
 />
    <glyph glyph-name="questiondown" unicode="&#xbf;" horiz-adv-x="933" 
d="M528 887q-47 0 -80.5 33.5t-33.5 80.5t33.5 81t80.5 34t81 -34t34 -81t-34 -80.5t-81 -33.5zM240 -45q0 -114 77.5 -175t208.5 -61q36 0 73.5 12.5t63 26t61 43t50 43.5t47.5 47l111 -137q-45 -42 -64 -58.5t-68.5 -53t-86.5 -53t-93.5 -31.5t-115.5 -15q-80 0 -157 24
t-143.5 71t-107.5 127.5t-41 181.5q0 68 17.5 128t39 99t61.5 81t63.5 61t66.5 51q5 4 8 6q80 60 102.5 128.5t22.5 233.5h187q0 -77 -2.5 -127t-10.5 -100.5t-22 -85t-39.5 -72t-60 -70t-85.5 -69.5q-42 -31 -62.5 -48t-48.5 -49t-40 -70.5t-12 -88.5z" />
    <glyph glyph-name="Adieresis" unicode="&#xc4;" horiz-adv-x="1085" 
d="M12 0l437 1475h188l436 -1475h-192l-103 348h-475l-104 -348h-187zM330 1577q-50 0 -84.5 34.5t-34.5 84.5t34.5 84.5t84.5 34.5t84.5 -34.5t34.5 -84.5t-34.5 -84.5t-84.5 -34.5zM756 1577q-50 0 -84.5 34.5t-34.5 84.5t34.5 84.5t84.5 34.5q49 0 83.5 -34.5t34.5 -84.5
t-34.5 -84.5t-83.5 -34.5zM352 506h379l-94 315l-94 471l-97 -471z" />
    <glyph glyph-name="Aring" unicode="&#xc5;" horiz-adv-x="1085" 
d="M12 0l437 1475h188l436 -1475h-192l-103 348h-475l-104 -348h-187zM541 1546q-88 0 -147.5 59.5t-59.5 147.5t59.5 147.5t147.5 59.5t147.5 -59.5t59.5 -147.5t-59.5 -147.5t-147.5 -59.5zM541 1645q46 0 77 31t31 77t-31 77.5t-77 31.5t-77.5 -31.5t-31.5 -77.5
t31.5 -77t77.5 -31zM352 506h379l-94 315l-94 471l-97 -471z" />
    <glyph glyph-name="Odieresis" unicode="&#xd6;" horiz-adv-x="1544" 
d="M770 -31q-167 0 -299.5 58.5t-217.5 162t-130 241.5t-45 300q0 161 49 301.5t138.5 246t224 166t296.5 60.5q153 0 282 -61t215.5 -165.5t134.5 -246t48 -301.5q0 -162 -44.5 -300t-130 -241.5t-219 -162t-302.5 -58.5zM788 150q245 0 366.5 153t121.5 434
q0 128 -29.5 233t-90 186t-162.5 126t-238 45q-147 0 -259 -78.5t-170.5 -212t-58.5 -299.5q0 -288 123.5 -437.5t396.5 -149.5zM559 1577q-49 0 -84 34.5t-35 84.5t35 84.5t84 34.5t84 -34.5t35 -84.5t-35 -84.5t-84 -34.5zM985 1577q-49 0 -84 34.5t-35 84.5t35 84.5
t84 34.5t84 -34.5t35 -84.5t-35 -84.5t-84 -34.5z" />
    <glyph glyph-name="multiply" unicode="&#xd7;" 
 />
    <glyph glyph-name="Oslash" unicode="&#xd8;" 
d="M254 -51l86 160q-126 102 -192 263.5t-66 358.5q0 160 49.5 301.5t139 246t224 165.5t296.5 61q151 0 278 -59l68 127l139 -84l-70 -129q126 -106 195 -270t69 -359q0 -162 -44.5 -300t-130 -241.5t-219 -162t-302.5 -58.5q-155 0 -293 56l-86 -160zM793 150
q245 0 366 153t121 434q0 310 -160 463l-553 -1016q93 -34 226 -34zM272 737q0 -329 156 -469l555 1020q-98 39 -223 39q-147 0 -259 -78.5t-170.5 -212t-58.5 -299.5z" />
    <glyph glyph-name="Udieresis" unicode="&#xdc;" horiz-adv-x="1232" 
d="M616 150q-68 0 -118 15.5t-81.5 43.5t-50 73.5t-25.5 98t-7 123.5l2 971h-186l-3 -1074q0 -65 16 -126t52 -117t89.5 -97.5t133.5 -66.5t178 -25t178 25t133.5 66.5t89.5 97.5t52 117t16 126l-2 1074h-186l2 -971q0 -90 -12 -151.5t-42.5 -109t-87 -70.5t-141.5 -23z
M403 1577q-49 0 -83.5 34.5t-34.5 84.5t34.5 84.5t83.5 34.5t84 -34.5t35 -84.5t-35 -84.5t-84 -34.5zM829 1577q-49 0 -83.5 34.5t-34.5 84.5t34.5 84.5t83.5 34.5t84 -34.5t35 -84.5t-35 -84.5t-84 -34.5z" />
    <glyph glyph-name="adieresis" unicode="&#xe4;" horiz-adv-x="997" 
d="M326 1221q-50 0 -84.5 34.5t-34.5 83.5t34.5 84t84.5 35q49 0 83.5 -34.5t34.5 -84.5q0 -49 -34 -83.5t-84 -34.5zM752 1221q-50 0 -84.5 34.5t-34.5 83.5t34.5 84t84.5 35q49 0 83.5 -34.5t34.5 -84.5q0 -49 -34 -83.5t-84 -34.5zM365 -31q-135 0 -221.5 97.5
t-86.5 228.5q0 78 29 140t73 101.5t110.5 69t127.5 45t138 27.5q96 14 136 41.5t40 85.5q0 66 -47 100.5t-136 34.5q-43 0 -101.5 -15.5t-93 -28.5t-97.5 -40l-60 156q10 4 49 19.5t57 22t55 19t63 18t61 10.5t67 5q184 0 275.5 -99t93.5 -288l2 -719h-180v170
q-119 -201 -354 -201zM416 133q62 0 119 29.5t95 75t61.5 97.5t25.5 99q3 111 0 164q-37 -18 -94.5 -34.5t-108 -27t-104.5 -30t-92.5 -43.5t-63.5 -66t-25 -98q0 -71 58.5 -118.5t128.5 -47.5z" />
    <glyph glyph-name="aring" unicode="&#xe5;" horiz-adv-x="997" 
d="M528 1184q-88 0 -147 59.5t-59 147.5t59 147t147 59t147.5 -59t59.5 -147t-59.5 -147.5t-147.5 -59.5zM528 1282q46 0 77.5 31.5t31.5 77.5t-31.5 77t-77.5 31t-77 -31t-31 -77t31 -77.5t77 -31.5zM365 -31q-135 0 -221.5 97.5t-86.5 228.5q0 78 29 140t73 101.5
t110.5 69t127.5 45t138 27.5q96 14 136 41.5t40 85.5q0 66 -47 100.5t-136 34.5q-43 0 -101.5 -15.5t-93 -28.5t-97.5 -40l-60 156q10 4 49 19.5t57 22t55 19t63 18t61 10.5t67 5q184 0 275.5 -99t93.5 -288l2 -719h-180v170q-119 -201 -354 -201zM416 133q62 0 119 29.5
t95 75t61.5 97.5t25.5 99q3 111 0 164q-37 -18 -94.5 -34.5t-108 -27t-104.5 -30t-92.5 -43.5t-63.5 -66t-25 -98q0 -71 58.5 -118.5t128.5 -47.5z" />
    <glyph glyph-name="odieresis" unicode="&#xf6;" horiz-adv-x="1220" 
d="M397 1221q-49 0 -83.5 34.5t-34.5 83.5q0 50 34.5 84.5t83.5 34.5t84 -35t35 -84t-34.5 -83.5t-84.5 -34.5zM823 1221q-49 0 -83.5 34.5t-34.5 83.5q0 50 34.5 84.5t83.5 34.5t84 -35t35 -84t-34.5 -83.5t-84.5 -34.5zM608 -31q-126 0 -228 45t-167.5 123t-100 181
t-34.5 221q0 156 69 285.5t194 205.5t280 76q147 0 267 -75.5t187.5 -205.5t67.5 -286q0 -159 -59.5 -286.5t-183 -205.5t-292.5 -78zM623 147q169 0 251 107.5t82 290.5q0 82 -21.5 152.5t-64 125.5t-112.5 87t-160 32q-146 0 -240 -116.5t-94 -280.5q0 -187 87 -292.5
t272 -105.5z" />
    <glyph glyph-name="divide" unicode="&#xf7;" 
 />
    <glyph glyph-name="oslash" unicode="&#xf8;" 
d="M616 -31q-103 0 -200 33l-68 -123l-133 72l68 127q-96 76 -146.5 196.5t-50.5 264.5q0 156 69 285.5t194 205.5t280 76q105 0 192 -37l70 129l6 -6l127 -66l-74 -137q94 -78 147.5 -196t53.5 -254q0 -159 -59.5 -286.5t-183 -205.5t-292.5 -78zM631 147q86 0 151 29.5
t104.5 83.5t59 125t19.5 160q0 185 -99 293l-364 -674q66 -17 129 -17zM272 545q0 -203 99 -305l370 680q-64 22 -135 22q-146 0 -240 -116.5t-94 -280.5z" />
    <glyph glyph-name="udieresis" unicode="&#xfc;" horiz-adv-x="1093" 
d="M782 156l-2 -156h174v1075h-186v-639q0 -116 -73 -208.5t-158 -92.5q-119 0 -165 68.5t-46 238.5l2 633h-187l-2 -735q0 -161 92.5 -266t245.5 -105q83 0 164.5 49t140.5 138zM346 1221q-50 0 -84.5 34.5t-34.5 83.5t34.5 84t84.5 35t84.5 -35t34.5 -84t-34.5 -83.5
t-84.5 -34.5zM772 1221q-50 0 -84.5 34.5t-34.5 83.5t34.5 84t84.5 35t84.5 -35t34.5 -84t-34.5 -83.5t-84.5 -34.5z" />
    <glyph glyph-name="uni2002" unicode="&#x2002;" horiz-adv-x="1064" 
 />
    <glyph glyph-name="uni2003" unicode="&#x2003;" horiz-adv-x="2088" 
 />
    <glyph glyph-name="uni2009" unicode="&#x2009;" horiz-adv-x="235" 
 />
    <glyph glyph-name="endash" unicode="&#x2013;" horiz-adv-x="1089" 
d="M33 483v158h1024v-158h-1024z" />
    <glyph glyph-name="emdash" unicode="&#x2014;" horiz-adv-x="2113" 
d="M33 483v158h2048v-158h-2048z" />
    <glyph glyph-name="quoteleft" unicode="&#x2018;" horiz-adv-x="425" 
d="M291 1475q-51 -123 -68 -209q-3 -18 1 -33t11.5 -24.5t22 -18.5t24.5 -13t27.5 -10t22.5 -8l-78 -186q-222 90 -166 332q16 74 64 200z" />
    <glyph glyph-name="quoteright" unicode="&#x2019;" horiz-adv-x="425" 
d="M135 1004q51 124 68 208q3 18 -1 33t-11.5 24.5t-22 18.5t-24.5 13t-27.5 10t-22.5 8l78 186q222 -90 166 -331q-17 -76 -64 -201z" />
    <glyph glyph-name="quotedblleft" unicode="&#x201c;" horiz-adv-x="722" 
d="M279 1475q-40 -97 -56 -177q-4 -22 1 -38.5t21 -28t26 -17t34 -13.5l27 -9l-78 -186q-222 90 -166 331q18 80 51 168zM575 1475q-38 -92 -55 -177q-4 -22 1 -38.5t21 -28t26 -17t34 -13.5l27 -9l-78 -186q-222 90 -166 331q18 80 51 168z" />
    <glyph glyph-name="quotedblright" unicode="&#x201d;" horiz-adv-x="735" 
d="M457 1036q38 93 55 176q3 18 -1 33t-11.5 24.5t-22 18.5t-24.5 13t-27.5 10t-22.5 8l78 186q222 -90 166 -331q-18 -80 -51 -168zM160 1036q38 93 55 176q3 18 -1 33t-11.5 24.5t-22 18.5t-24.5 13t-27.5 10t-22.5 8l78 186q222 -90 166 -331q-18 -80 -51 -168z" />
    <glyph glyph-name="perthousand" unicode="&#x2030;" horiz-adv-x="2187" 
d="M1057 1505l149 -30l-817 -1506l-143 31zM1094 653q148 0 240.5 -97.5t92.5 -244.5t-92.5 -244.5t-240.5 -97.5q-149 0 -241.5 97.5t-92.5 244.5t92.5 244.5t241.5 97.5zM1094 506q-76 0 -131.5 -56.5t-55.5 -138.5t55.5 -138t131.5 -56q77 0 131.5 56t54.5 138
q0 83 -54.5 139t-131.5 56zM358 1507q149 0 241.5 -97.5t92.5 -244.5t-92.5 -244.5t-241.5 -97.5q-148 0 -240.5 97.5t-92.5 244.5t92.5 244.5t240.5 97.5zM358 1360q-76 0 -131 -56.5t-55 -138.5t55 -138t131 -56q77 0 132 56t55 138t-55 138.5t-132 56.5zM1845 653
q149 0 241.5 -97.5t92.5 -244.5t-92.5 -244.5t-241.5 -97.5t-241.5 97.5t-92.5 244.5t92.5 244.5t241.5 97.5zM1845 506q-76 0 -131 -56.5t-55 -138.5t55 -138t131 -56q77 0 132 56t55 138t-55 138.5t-132 56.5z" />
    <glyph glyph-name="guilsinglleft" unicode="&#x2039;" 
 />
    <glyph glyph-name="guilsinglright" unicode="&#x203a;" 
 />
    <glyph glyph-name="Euro" unicode="&#x20ac;" 
 />
    <glyph glyph-name="arrowleft" unicode="&#x2190;" horiz-adv-x="1632" 
d="M877 1212l104 -137l-584 -450h1202v-172h-1202l584 -453l-104 -137l-844 676z" />
    <glyph glyph-name="arrowup" unicode="&#x2191;" horiz-adv-x="1415" 
d="M33 692l674 844l675 -844l-137 -104l-452 583v-1202h-172v1202l-451 -583z" />
    <glyph glyph-name="arrowright" unicode="&#x2192;" horiz-adv-x="1632" 
d="M756 1212l843 -673l-843 -676l-105 137l584 453h-1202v172h1202l-584 450z" />
    <glyph glyph-name="arrowdown" unicode="&#x2193;" horiz-adv-x="1415" 
d="M1382 813l-673 -844l-676 844l137 105l453 -584v1202h172v-1202l450 584z" />
    <glyph glyph-name="arrowboth" unicode="&#x2194;" 
 />
    <glyph glyph-name="arrowupdn" unicode="&#x2195;" 
 />
    <glyph glyph-name="uni2196" unicode="&#x2196;" 
 />
    <glyph glyph-name="uni2197" unicode="&#x2197;" horiz-adv-x="1101" 
 />
    <glyph glyph-name="uni2198" unicode="&#x2198;" 
 />
    <glyph glyph-name="uni2199" unicode="&#x2199;" 
 />
    <glyph glyph-name="minus" unicode="&#x2212;" 
 />
    <glyph glyph-name="approxequal" unicode="&#x2248;" 
 />
    <glyph glyph-name="lessequal" unicode="&#x2264;" 
 />
    <glyph glyph-name="greaterequal" unicode="&#x2265;" 
 />
  </font>
</defs>
</svg>
